HIERARCHY
ROOT Hips
{
	OFFSET 0.000000 89.005402 0.000000
	CHANNELS 6 Xposition Yposition Zposition Xrotation Yrotation Zrotation
	JOINT Spine
	{
		OFFSET 0.116900 10.681000 0.373400
		CHANNELS 3 Xrotation Yrotation Zrotation
		JOINT Spine1
		{
			OFFSET 0.000000 13.840401 0.053500
			CHANNELS 3 Xrotation Yrotation Zrotation
			JOINT Spine2
			{
				OFFSET 0.000000 14.712700 -0.366200
				CHANNELS 3 Xrotation Yrotation Zrotation
				JOINT Neck
				{
					OFFSET 0.000000 35.415497 -3.314200
					CHANNELS 3 Xrotation Yrotation Zrotation
					JOINT Head
					{
						OFFSET 0.000000 16.899200 1.218300
						CHANNELS 3 Xrotation Yrotation Zrotation
						JOINT HeadTop_End
						{
							OFFSET 0.000000 22.206207 2.192500
							CHANNELS 3 Xrotation Yrotation Zrotation
							End Site
							{
								OFFSET 0.000000 22.314178 0.000000
							}
						}
					}
				}
				JOINT LeftShoulder
				{
					OFFSET 12.896400 26.716293 -4.548400
					CHANNELS 3 Xrotation Yrotation Zrotation
					JOINT LeftArm
					{
						OFFSET 19.027000 -4.857010 -1.718400
						CHANNELS 3 Xrotation Yrotation Zrotation
						JOINT LeftForeArm
						{
							OFFSET 24.179897 0.000000 0.000000
							CHANNELS 3 Xrotation Yrotation Zrotation
							JOINT LeftHand
							{
								OFFSET 27.156403 0.000000 0.000000
								CHANNELS 3 Xrotation Yrotation Zrotation
								JOINT LeftHandIndex1
								{
									OFFSET 16.441200 0.000000 0.000000
									CHANNELS 3 Xrotation Yrotation Zrotation
									JOINT LeftHandIndex2
									{
										OFFSET 4.821899 0.000000 0.000000
										CHANNELS 3 Xrotation Yrotation Zrotation
										JOINT LeftHandIndex3
										{
											OFFSET 6.386497 0.000000 0.000000
											CHANNELS 3 Xrotation Yrotation Zrotation
											JOINT LeftHandIndex4
											{
												OFFSET 5.188988 0.000000 0.000000
												CHANNELS 3 Xrotation Yrotation Zrotation
												End Site
												{
													OFFSET -0.178703 5.185913 0.000177
												}
											}
										}
									}
								}
								JOINT LeftHandThumb1
								{
									OFFSET 6.534897 -5.032593 5.900300
									CHANNELS 3 Xrotation Yrotation Zrotation
									JOINT LeftHandThumb2
									{
										OFFSET 3.818176 -2.204422 2.204423
										CHANNELS 3 Xrotation Yrotation Zrotation
										JOINT LeftHandThumb3
										{
											OFFSET 3.252098 -1.877594 1.877601
											CHANNELS 3 Xrotation Yrotation Zrotation
											JOINT LeftHandThumb4
											{
												OFFSET 5.251778 -3.032120 3.032117
												CHANNELS 3 Xrotation Yrotation Zrotation
												End Site
												{
													OFFSET 0.000023 6.780014 0.000000
												}
											}
										}
									}
								}
							}
						}
					}
				}
				JOINT RightShoulder
				{
					OFFSET -12.896300 26.716293 -4.548400
					CHANNELS 3 Xrotation Yrotation Zrotation
					JOINT RightArm
					{
						OFFSET -19.027000 -4.857010 -1.718400
						CHANNELS 3 Xrotation Yrotation Zrotation
						JOINT RightForeArm
						{
							OFFSET -24.179897 0.000000 0.000000
							CHANNELS 3 Xrotation Yrotation Zrotation
							JOINT RightHand
							{
								OFFSET -27.156403 0.000000 0.000000
								CHANNELS 3 Xrotation Yrotation Zrotation
								JOINT RightHandThumb1
								{
									OFFSET -6.591202 -4.852203 5.988100
									CHANNELS 3 Xrotation Yrotation Zrotation
									JOINT RightHandThumb2
									{
										OFFSET -3.818176 -2.204422 2.204423
										CHANNELS 3 Xrotation Yrotation Zrotation
										JOINT RightHandThumb3
										{
											OFFSET -3.252098 -1.877594 1.877601
											CHANNELS 3 Xrotation Yrotation Zrotation
											JOINT RightHandThumb4
											{
												OFFSET -5.251778 -3.032120 3.032117
												CHANNELS 3 Xrotation Yrotation Zrotation
												End Site
												{
													OFFSET -0.000023 6.780014 0.000000
												}
											}
										}
									}
								}
								JOINT RightHandIndex1
								{
									OFFSET -16.029404 0.000000 0.000000
									CHANNELS 3 Xrotation Yrotation Zrotation
									JOINT RightHandIndex2
									{
										OFFSET -5.213303 0.000000 0.000000
										CHANNELS 3 Xrotation Yrotation Zrotation
										JOINT RightHandIndex3
										{
											OFFSET -6.386528 0.000000 0.000000
											CHANNELS 3 Xrotation Yrotation Zrotation
											JOINT RightHandIndex4
											{
												OFFSET -5.189026 0.000000 0.000000
												CHANNELS 3 Xrotation Yrotation Zrotation
												End Site
												{
													OFFSET 0.236702 5.183624 0.001972
												}
											}
										}
									}
								}
							}
						}
					}
				}
			}
		}
	}
	JOINT LeftUpLeg
	{
		OFFSET 14.073000 -7.904099 -1.463000
		CHANNELS 3 Xrotation Yrotation Zrotation
		JOINT LeftLeg
		{
			OFFSET -0.109806 -34.073280 4.093200
			CHANNELS 3 Xrotation Yrotation Zrotation
			JOINT LeftFoot
			{
				OFFSET 0.109806 -29.899420 -6.319000
				CHANNELS 3 Xrotation Yrotation Zrotation
				JOINT LeftToeBase
				{
					OFFSET 1.551100 -14.988700 20.535801
					CHANNELS 3 Xrotation Yrotation Zrotation
					JOINT LeftToe_End
					{
						OFFSET 0.221200 0.570800 13.248301
						CHANNELS 3 Xrotation Yrotation Zrotation
						End Site
						{
							OFFSET 0.000000 13.262435 0.000000
						}
					}
				}
			}
		}
	}
	JOINT RightUpLeg
	{
		OFFSET -13.839300 -7.904099 -1.463000
		CHANNELS 3 Xrotation Yrotation Zrotation
		JOINT RightLeg
		{
			OFFSET 0.109694 -34.073219 4.093300
			CHANNELS 3 Xrotation Yrotation Zrotation
			JOINT RightFoot
			{
				OFFSET -0.109694 -29.899384 -6.319200
				CHANNELS 3 Xrotation Yrotation Zrotation
				JOINT RightToeBase
				{
					OFFSET -1.551100 -14.988700 20.535801
					CHANNELS 3 Xrotation Yrotation Zrotation
					JOINT RightToe_End
					{
						OFFSET -0.221200 0.570900 13.248299
						CHANNELS 3 Xrotation Yrotation Zrotation
						End Site
						{
							OFFSET 0.000000 13.262440 0.000000
						}
					}
				}
			}
		}
	}
}
MOTION
Frames: 4
Frame Time: 0.033333
-0.384549 71.819824 -0.075028 -5.398677 -46.211991 -0.238056 9.452217 7.171209 -1.616264 2.187715 0.989897 -0.915631 2.202830 0.982773 -0.894152 0.084650 13.220559 4.538679 8.920923 20.138143 -4.130237 -0.000000 0.000000 0.000001 1.117174 3.546358 -8.633309 -53.487013 4.935506 -51.503004 -0.000004 -106.358087 -0.000006 1.988614 -7.706149 -15.869231 0.255309 3.378217 -45.814341 5.654088 5.847764 -88.067448 2.162143 4.544813 -50.866379 -0.000001 0.000001 0.000001 -6.141217 -11.690802 -6.761694 9.914105 42.595539 3.409878 -0.422814 8.108097 27.509101 -0.000002 -0.000001 0.000000 3.036126 13.027198 -5.371409 -48.713712 27.172828 83.457064 0.000009 105.988301 -0.000005 -8.345373 17.548093 8.775674 -7.341101 13.749655 7.412344 9.855760 -44.489089 -3.903260 -0.115774 -14.513088 -28.973878 -0.000002 -0.000003 -0.000000 -0.124371 -2.384793 45.108881 4.500585 -4.654544 88.071157 1.723226 -3.618380 50.920112 -0.000000 -0.000001 -0.000001 -31.861449 6.395815 19.963984 59.337603 -8.188243 3.970982 -25.244811 -6.905778 -16.448603 -1.594017 -0.000012 -0.000007 -0.000000 0.000000 -0.000000 -18.986249 -11.114465 -32.040872 59.475115 -5.224232 -6.737398 -30.568887 -9.909680 26.194283 -0.013004 -0.000019 0.000000 0.000000 0.000000 -0.000000 
-0.465687 72.586784 -0.026033 -6.795400 -47.147874 -0.717061 8.352377 6.950310 -1.195055 3.661654 1.452243 -1.344495 3.671359 1.447229 -1.326033 1.261864 11.210777 2.983159 13.277189 20.304076 -5.654794 -0.000000 0.000000 0.000001 0.714847 2.079292 -7.007033 -48.084378 5.567723 -52.892801 0.000265 -106.793054 0.000258 0.133903 -7.178128 -14.767984 0.255308 3.378222 -45.814348 5.654087 5.847764 -88.067448 2.162142 4.544813 -50.866372 -0.000000 -0.000002 -0.000002 -6.141218 -11.690799 -6.761693 9.914113 42.595529 3.409881 -0.422816 8.108095 27.509103 -0.000003 0.000000 0.000000 4.574589 15.247967 -3.961111 -48.297278 28.144276 77.674967 0.000057 105.781271 -0.000063 -11.677740 16.005406 10.404300 -7.341100 13.749657 7.412342 9.855765 -44.489089 -3.903252 -0.115775 -14.513092 -28.973881 -0.000002 -0.000000 -0.000001 -0.124372 -2.384787 45.108878 4.500584 -4.654546 88.071157 1.723225 -3.618379 50.920109 0.000000 0.000002 -0.000001 -29.067185 7.458453 19.349586 56.922438 -7.395206 3.860536 -24.648578 -6.915561 -16.795423 -1.594017 -0.000014 -0.000007 -0.000000 -0.000000 -0.000000 -18.315243 -11.532468 -32.456236 57.852112 -4.310433 -7.165259 -29.741021 -9.488169 25.562471 -0.013004 -0.000019 -0.000000 -0.000000 0.000000 -0.000000 
-0.661955 73.506660 0.254476 -8.811844 -47.802284 -1.062259 6.766162 6.713733 -0.470494 5.209299 2.019322 -1.804170 5.214693 2.015618 -1.788818 2.290596 8.646562 1.346797 16.189565 19.890412 -6.894244 -0.000002 -0.000000 -0.000000 0.304831 0.751817 -4.650391 -41.843631 6.318609 -55.549990 0.000108 -105.768833 0.000101 -1.257037 -4.220063 -15.902844 0.255309 3.378219 -45.814348 5.654087 5.847764 -88.067448 2.162141 4.544813 -50.866376 -0.000001 -0.000001 0.000001 -6.141214 -11.690802 -6.761693 9.914108 42.595532 3.409871 -0.422813 8.108100 27.509103 -0.000000 0.000001 0.000000 6.115145 17.625756 -1.843320 -47.511752 29.621899 70.814459 0.000007 104.934655 -0.000003 -13.841326 11.394542 14.464799 -7.341102 13.749655 7.412344 9.855759 -44.489093 -3.903254 -0.115775 -14.513093 -28.973881 -0.000000 0.000001 -0.000002 -0.124371 -2.384789 45.108881 4.500585 -4.654546 88.071157 1.723225 -3.618379 50.920112 0.000001 -0.000002 -0.000002 -25.167881 8.776411 17.730925 53.722330 -6.460404 3.770133 -23.872517 -7.025028 -17.035475 -1.594017 -0.000014 -0.000007 0.000000 -0.000000 0.000000 -16.811192 -12.163237 -33.566968 55.652511 -3.489229 -7.818431 -28.795712 -9.206262 25.430903 -0.013004 -0.000020 0.000000 -0.000000 -0.000000 0.000000 
-0.958176 74.359688 0.478630 -10.826920 -47.975652 -1.117056 5.221685 5.895700 0.366124 6.848864 2.366033 -2.289536 6.851578 2.362597 -2.277707 2.525670 6.010227 0.217967 13.116641 20.746312 -6.855920 -0.000001 -0.000001 -0.000000 -0.024043 -0.628327 -1.792198 -35.159813 8.135898 -57.883879 0.000109 -105.124452 0.000103 -1.609880 0.413875 -18.361531 0.255306 3.378218 -45.814344 5.654087 5.847765 -88.067448 2.162141 4.544818 -50.866376 0.000001 0.000001 -0.000002 -6.141218 -11.690802 -6.761694 9.914102 42.595532 3.409878 -0.422812 8.108092 27.509096 -0.000003 0.000001 -0.000000 7.431799 20.133811 0.752326 -46.701162 31.934440 63.796733 -0.000046 103.951156 0.000053 -14.763915 5.676828 20.218005 -7.341100 13.749656 7.412339 9.855759 -44.489096 -3.903250 -0.115766 -14.513090 -28.973881 -0.000002 -0.000000 -0.000000 -0.124372 -2.384791 45.108874 4.500588 -4.654547 88.071157 1.723224 -3.618380 50.920112 0.000001 -0.000002 -0.000002 -21.312162 10.018343 15.692086 50.272043 -5.821577 3.834339 -22.773550 -7.253838 -17.226523 -1.594017 -0.000015 -0.000007 0.000000 -0.000004 -0.000000 -14.920741 -12.703151 -34.871189 53.602041 -3.221405 -8.341071 -28.055156 -9.105424 25.673908 -0.013004 -0.000019 0.000000 0.000000 0.000001 -0.000000 
